<?xml version="1.0" standalone="no"?>
<!DOCTYPE svg PUBLIC "-//W3C//DTD SVG 20010904//EN"
 "http://www.w3.org/TR/2001/REC-SVG-20010904/DTD/svg10.dtd">
<svg version="1.0" xmlns="http://www.w3.org/2000/svg"
 width="75.000000pt" height="113.000000pt" viewBox="0 0 75.000000 113.000000"
 preserveAspectRatio="xMidYMid meet">

<g transform="translate(0.000000,113.000000) scale(0.100000,-0.100000)"
fill="#000000" stroke="none">
<path d="M290 797 c-48 -15 -113 -83 -128 -133 -16 -55 -15 -157 1 -197 35
-81 113 -136 196 -137 45 0 131 33 131 51 0 5 5 9 10 9 6 0 10 -11 10 -25 0
-22 4 -25 40 -25 l40 0 0 125 0 125 -106 0 -105 0 3 -37 3 -38 53 -3 c28 -2
52 -5 52 -8 0 -18 -33 -62 -55 -74 -111 -60 -214 60 -174 204 16 59 52 86 112
86 44 0 53 -4 81 -35 28 -31 38 -35 80 -35 40 0 47 3 42 16 -3 9 -6 20 -6 24
0 20 -67 84 -105 101 -45 21 -121 23 -175 6z"/>
</g>
</svg>
