<?xml version="1.0" encoding="UTF-8"?>
<svg xmlns="http://www.w3.org/2000/svg" xmlns:xlink="http://www.w3.org/1999/xlink" width="75px" height="45px" viewBox="0 0 75 45" version="1.1">
<g id="surface1">
<rect x="0" y="0" width="75" height="45" style="fill:rgb(8.235294%,63.137257%,86.274511%);fill-opacity:1;stroke:none;"/>
<path style=" stroke:none;fill-rule:nonzero;fill:rgb(100%,100%,100%);fill-opacity:1;" d="M 54.007812 22.5 C 54.007812 13.34375 46.617188 5.921875 37.5 5.921875 C 28.382812 5.921875 20.992188 13.34375 20.992188 22.5 C 20.992188 31.65625 28.382812 39.078125 37.5 39.078125 C 46.617188 39.078125 54.007812 31.65625 54.007812 22.5 Z M 54.007812 22.5 "/>
<path style=" stroke:none;fill-rule:nonzero;fill:rgb(98.431373%,66.274512%,9.803922%);fill-opacity:1;" d="M 32.066406 28.648438 C 37.09375 29.074219 39.320312 30.628906 44.105469 30.617188 C 46.792969 30.609375 48.960938 30.117188 50.332031 29.726562 C 51.527344 27.585938 52.207031 25.125 52.207031 22.5 C 52.207031 14.34375 45.621094 7.722656 37.492188 7.722656 C 29.359375 7.722656 22.773438 14.332031 22.773438 22.5 C 22.773438 24.847656 23.320312 27.066406 24.292969 29.035156 C 27.585938 28.449219 30.3125 28.507812 32.066406 28.648438 Z M 32.066406 28.648438 "/>
<path style=" stroke:none;fill-rule:nonzero;fill:rgb(28.627452%,71.764708%,28.627452%);fill-opacity:1;" d="M 32.066406 28.648438 C 37.105469 29.074219 39.320312 30.628906 44.113281 30.617188 C 46.800781 30.609375 48.980469 30.117188 50.339844 29.726562 C 51.507812 27.644531 52.1875 25.246094 52.21875 22.699219 L 42.546875 15.792969 L 38.867188 18.632812 L 30.246094 20.007812 C 30.246094 20.007812 25.453125 22.0625 22.792969 23.210938 C 22.886719 25.292969 23.414062 27.265625 24.292969 29.035156 C 27.585938 28.449219 30.300781 28.507812 32.066406 28.648438 Z M 32.066406 28.648438 "/>
<path style=" stroke:none;fill-rule:nonzero;fill:rgb(100%,100%,100%);fill-opacity:1;" d="M 36.027344 16.644531 L 33.160156 10.496094 L 35.066406 17.109375 L 31.046875 11.425781 L 34.152344 17.628906 L 29.359375 12.882812 L 33.445312 18.292969 L 27.734375 14.390625 L 32.367188 18.683594 L 32.007812 18.796875 L 26.660156 16.390625 L 31.074219 19.230469 L 30.347656 19.523438 L 25.792969 18.386719 L 29.40625 20 L 27.679688 20.679688 L 25.066406 20.480469 L 26.960938 20.9375 L 22.792969 22.605469 C 22.300781 22.945312 22.765625 23.410156 22.800781 23.789062 L 30.472656 20.320312 L 30.925781 20.566406 L 33.046875 19.761719 C 33.199219 19.875 33.445312 20.09375 33.632812 20.433594 C 33.800781 20.738281 33.859375 21.011719 33.886719 21.191406 C 34.652344 21.78125 35.425781 22.367188 36.1875 22.953125 L 35.140625 21.589844 L 42.660156 16.257812 L 52.226562 23.21875 C 52.234375 22.984375 52.492188 22.726562 52.492188 22.480469 C 52.492188 22.347656 52.21875 22.214844 52.207031 22.082031 L 49.480469 19.988281 L 50.226562 19.734375 L 49.300781 19.886719 L 47.707031 18.652344 L 49.546875 17.621094 L 47.378906 18.292969 L 46.234375 17.421875 L 48.605469 15.660156 L 45.832031 17.109375 L 44.878906 16.464844 L 47.347656 13.804688 L 44.472656 16.078125 L 43.667969 15.355469 L 45.59375 12.34375 L 43.347656 14.996094 C 43.253906 14.988281 43.152344 14.976562 43.054688 14.976562 C 42.726562 15.167969 42.386719 15.386719 42.039062 15.613281 C 41.90625 15.699219 41.78125 15.78125 41.652344 15.878906 L 43.726562 11.199219 L 39.953125 17.117188 L 41.660156 10.523438 L 38.992188 16.65625 L 39.613281 9.757812 L 37.953125 16.542969 C 37.792969 11.566406 37.652344 9.472656 37.507812 9.472656 C 37.367188 9.472656 37.21875 11.566406 37.066406 16.542969 C 36.433594 14.277344 35.800781 12.003906 35.167969 9.738281 Z M 36.027344 16.644531 "/>
<path style=" stroke:none;fill-rule:nonzero;fill:rgb(100%,100%,100%);fill-opacity:1;" d="M 42.972656 18.113281 C 42.925781 18.691406 42.878906 19.261719 42.839844 19.839844 C 43.046875 20.035156 43.300781 20.339844 43.378906 20.777344 C 43.394531 20.898438 43.394531 20.984375 43.40625 21.089844 C 43.414062 21.382812 43.453125 21.816406 43.59375 22.375 C 44.121094 22.1875 44.546875 22.148438 44.800781 22.140625 C 46.746094 22.09375 47.6875 23.664062 50.253906 24.023438 C 50.492188 24.054688 50.679688 24.074219 50.78125 24.082031 C 49.113281 22.738281 47.847656 21.742188 47.246094 21.238281 C 47.246094 21.238281 46.945312 20.992188 46.199219 20.566406 C 46.039062 20.480469 45.773438 20.339844 45.40625 20.292969 C 45.273438 20.273438 45.167969 20.28125 45.09375 20.28125 C 44.378906 19.554688 43.679688 18.832031 42.972656 18.113281 Z M 42.972656 18.113281 "/>
<path style=" stroke:none;fill-rule:nonzero;fill:rgb(8.235294%,63.137257%,86.274511%);fill-opacity:1;" d="M 42.945312 31.753906 C 41.234375 31.652344 40.433594 31.367188 38.414062 30.921875 C 36.445312 30.484375 26.679688 28.34375 25.746094 30.457031 C 25.660156 30.636719 25.621094 30.988281 25.8125 31.453125 C 25.8125 31.453125 25.8125 31.441406 25.8125 31.453125 C 26.140625 31.886719 26.5 32.304688 26.867188 32.695312 C 30.292969 32.117188 32.992188 32.371094 34.765625 32.722656 C 36.40625 33.054688 37.746094 33.546875 40.105469 33.707031 C 41.980469 33.839844 43.527344 33.6875 44.546875 33.535156 C 43.066406 33.886719 41.878906 34 41.152344 34.039062 C 36.574219 34.292969 34.273438 32.769531 29.386719 33.175781 C 28.613281 33.242188 27.945312 33.328125 27.59375 33.386719 C 30.207031 35.792969 33.6875 37.25 37.519531 37.25 C 42.460938 37.25 46.839844 34.796875 49.507812 31.046875 C 49.507812 31.035156 49.507812 31.035156 49.507812 31.027344 C 47.972656 31.472656 45.6875 31.9375 42.945312 31.753906 Z M 42.945312 31.753906 "/>
</g>
</svg>
